<svg width="100" height="48" viewBox="0 0 100 48" fill="none" xmlns="http://www.w3.org/2000/svg">
<rect width="100" height="48" rx="24" fill="#12CC50"/>
<path d="M50.8382 14.5882C50.8382 14.1253 50.4629 13.75 50 13.75C49.537 13.75 49.1618 14.1253 49.1618 14.5882V23.1617H40.5882C40.1253 23.1617 39.75 23.537 39.75 23.9999C39.75 24.4628 40.1253 24.8381 40.5882 24.8381H49.1618V33.4116C49.1618 33.8745 49.537 34.2498 50 34.2498C50.4629 34.2498 50.8382 33.8745 50.8382 33.4116V24.8381H59.4118C59.8747 24.8381 60.25 24.4628 60.25 23.9999C60.25 23.5369 59.8747 23.1617 59.4118 23.1617H50.8382V14.5882Z" fill="white" stroke="white" stroke-width="0.5" stroke-linecap="round" stroke-linejoin="round"/>
</svg>
