<svg width="34" height="34" viewBox="0 0 34 34" fill="none" xmlns="http://www.w3.org/2000/svg">
<path fill-rule="evenodd" clip-rule="evenodd" d="M11.2543 2.37569C12.7782 0.85456 14.845 0 17 0C19.155 0 21.2218 0.85456 22.7457 2.37569C24.2695 3.89682 25.1256 5.95991 25.1256 8.11111C25.1256 10.2623 24.2695 12.3254 22.7457 13.8465C21.2218 15.3677 19.155 16.2222 17 16.2222C14.845 16.2222 12.7782 15.3677 11.2543 13.8465C9.73049 12.3254 8.8744 10.2623 8.8744 8.11111C8.8744 5.95991 9.73049 3.89682 11.2543 2.37569ZM17 2C15.3763 2 13.8192 2.64385 12.6711 3.7899C11.523 4.93596 10.878 6.49034 10.878 8.11111C10.878 9.73188 11.523 11.2863 12.6711 12.4323C13.8192 13.5784 15.3763 14.2222 17 14.2222C18.6237 14.2222 20.1808 13.5784 21.3289 12.4323C22.477 11.2863 23.122 9.73188 23.122 8.11111C23.122 6.49034 22.477 4.93596 21.3289 3.7899C20.1808 2.64385 18.6237 2 17 2ZM13.4381 23.3333C11.8144 23.3333 10.2573 23.9772 9.10917 25.1232C7.96107 26.2693 7.31607 27.8237 7.31607 29.4444V33C7.31607 33.5523 6.86756 34 6.31429 34C5.76101 34 5.3125 33.5523 5.3125 33V29.4444C5.3125 27.2932 6.16859 25.2302 7.69243 23.709C9.21627 22.1879 11.283 21.3333 13.4381 21.3333H20.5619C22.7169 21.3333 24.7837 22.1879 26.3076 23.709C27.8314 25.2302 28.6875 27.2932 28.6875 29.4444V33C28.6875 33.5523 28.239 34 27.6857 34C27.1324 34 26.6839 33.5523 26.6839 33V29.4444C26.6839 27.8237 26.0389 26.2693 24.8908 25.1232C23.7427 23.9772 22.1856 23.3333 20.5619 23.3333H13.4381Z" fill="#CFCFCF"/>
<path d="M5.3125 31.875H28.6875V33.6667C28.6875 33.8508 28.5382 34 28.3542 34H5.64583C5.46174 34 5.3125 33.8508 5.3125 33.6667V31.875Z" fill="#CFCFCF"/>
</svg>
