<svg width="40" height="40" viewBox="0 0 40 40" fill="none" xmlns="http://www.w3.org/2000/svg">
<rect width="40" height="40" rx="12" fill="#053EFF"/>
<path d="M18.0716 18.996C18.0716 18.996 19.9643 18.8555 19.9643 16.6361C19.9643 14.4165 18.4158 13.3333 16.4544 13.3333H10V25.7367H16.4544C16.4544 25.7367 20.3945 25.8612 20.3945 22.0758C20.3945 22.0758 20.5663 18.996 18.0716 18.996ZM15.9898 15.5378H16.4544C16.4544 15.5378 17.3317 15.5378 17.3317 16.8284C17.3317 18.1187 16.8157 18.3058 16.2305 18.3058H12.8439V15.5378H15.9898ZM16.272 23.5322H12.8439V20.2175H16.4544C16.4544 20.2175 17.762 20.2004 17.762 21.921C17.762 23.3718 16.7853 23.5213 16.272 23.5322ZM25.6494 16.4891C20.8794 16.4891 20.8836 21.2548 20.8836 21.2548C20.8836 21.2548 20.5563 25.9962 25.6494 25.9962C25.6494 25.9962 29.8935 26.2386 29.8935 22.6979H27.7108C27.7108 22.6979 27.7836 24.0313 25.7222 24.0313C25.7222 24.0313 23.5391 24.1776 23.5391 21.8734H29.9663C29.9663 21.8733 30.6696 16.4891 25.6494 16.4891ZM23.5151 20.2175C23.5151 20.2175 23.7817 18.3058 25.6979 18.3058C27.6137 18.3058 27.5897 20.2175 27.5897 20.2175H23.5151ZM28.0981 15.5914H22.9808V14.064H28.0981V15.5914Z" fill="white"/>
</svg>
