<svg width="21" height="17" viewBox="0 0 21 17" fill="none" xmlns="http://www.w3.org/2000/svg">
<path d="M2.91309 16.6602C2.04427 16.6602 1.39128 16.4443 0.954102 16.0127C0.522461 15.5866 0.306641 14.9447 0.306641 14.0869V5.396C0.306641 4.54378 0.522461 3.90462 0.954102 3.47852C1.39128 3.04688 2.04427 2.83105 2.91309 2.83105H5.229C5.5555 2.83105 5.79622 2.79232 5.95117 2.71484C6.10612 2.63184 6.2749 2.48796 6.45752 2.2832L7.12158 1.53613C7.33187 1.30924 7.55876 1.13493 7.80225 1.01318C8.05127 0.891439 8.38883 0.830566 8.81494 0.830566H12.127C12.5531 0.830566 12.8906 0.891439 13.1396 1.01318C13.3887 1.13493 13.6156 1.30924 13.8203 1.53613L14.4844 2.2832C14.6117 2.42155 14.7251 2.53223 14.8247 2.61523C14.9299 2.69271 15.0488 2.74805 15.1816 2.78125C15.3145 2.81445 15.4915 2.83105 15.7129 2.83105H18.0869C18.9502 2.83105 19.6004 3.04688 20.0376 3.47852C20.4748 3.90462 20.6934 4.54378 20.6934 5.396V14.0869C20.6934 14.9447 20.4748 15.5866 20.0376 16.0127C19.6004 16.4443 18.9502 16.6602 18.0869 16.6602H2.91309ZM2.92969 15.3237H18.062C18.4715 15.3237 18.7897 15.2158 19.0166 15C19.2435 14.7786 19.3569 14.4521 19.3569 14.0205V5.4707C19.3569 5.03906 19.2435 4.71533 19.0166 4.49951C18.7897 4.27816 18.4715 4.16748 18.062 4.16748H15.3809C15.0046 4.16748 14.7002 4.12598 14.4678 4.04297C14.2409 3.95443 14.0223 3.79395 13.812 3.56152L13.1646 2.83105C12.9266 2.56543 12.7163 2.38835 12.5337 2.2998C12.3511 2.21126 12.0771 2.16699 11.7119 2.16699H9.22998C8.86475 2.16699 8.59082 2.21126 8.4082 2.2998C8.22559 2.38835 8.0153 2.56543 7.77734 2.83105L7.12988 3.56152C6.9196 3.79395 6.69824 3.95443 6.46582 4.04297C6.23893 4.12598 5.93734 4.16748 5.56104 4.16748H2.92969C2.52018 4.16748 2.20199 4.27816 1.9751 4.49951C1.75374 4.71533 1.64307 5.03906 1.64307 5.4707V14.0205C1.64307 14.4521 1.75374 14.7786 1.9751 15C2.20199 15.2158 2.52018 15.3237 2.92969 15.3237ZM10.5 14.1284C9.86914 14.1284 9.27979 14.0122 8.73193 13.7798C8.18408 13.5474 7.70264 13.2236 7.2876 12.8086C6.87809 12.3936 6.55436 11.9121 6.31641 11.3643C6.08398 10.8164 5.96777 10.2243 5.96777 9.58789C5.96777 8.95703 6.08398 8.36768 6.31641 7.81982C6.55436 7.27197 6.87809 6.79053 7.2876 6.37549C7.70264 5.96045 8.18408 5.63672 8.73193 5.4043C9.27979 5.17188 9.86914 5.05566 10.5 5.05566C11.3356 5.05566 12.0965 5.25765 12.7827 5.66162C13.4689 6.06559 14.014 6.61068 14.418 7.29688C14.8219 7.98307 15.0239 8.74674 15.0239 9.58789C15.0239 10.2243 14.9077 10.8164 14.6753 11.3643C14.4429 11.9121 14.1191 12.3936 13.7041 12.8086C13.2891 13.2236 12.8076 13.5474 12.2598 13.7798C11.7119 14.0122 11.1253 14.1284 10.5 14.1284ZM10.5 12.8667C11.1032 12.8667 11.651 12.7201 12.1436 12.4268C12.6416 12.1335 13.0373 11.7406 13.3306 11.248C13.6239 10.75 13.7705 10.1966 13.7705 9.58789C13.7705 8.9847 13.6239 8.43685 13.3306 7.94434C13.0373 7.44629 12.6416 7.05062 12.1436 6.75732C11.651 6.4585 11.1032 6.30908 10.5 6.30908C9.89681 6.30908 9.34619 6.4585 8.84814 6.75732C8.35563 7.05062 7.95996 7.44629 7.66113 7.94434C7.36784 8.43685 7.22119 8.9847 7.22119 9.58789C7.22119 10.1966 7.36784 10.75 7.66113 11.248C7.95996 11.7406 8.35563 12.1335 8.84814 12.4268C9.34619 12.7201 9.89681 12.8667 10.5 12.8667ZM15.3643 6.5332C15.3643 6.25651 15.4666 6.01579 15.6714 5.81104C15.8761 5.60628 16.1224 5.50391 16.4102 5.50391C16.6868 5.50391 16.9276 5.60628 17.1323 5.81104C17.3371 6.01579 17.4395 6.25651 17.4395 6.5332C17.4395 6.82096 17.3371 7.06445 17.1323 7.26367C16.9276 7.46289 16.6868 7.5625 16.4102 7.5625C16.1224 7.56803 15.8761 7.47119 15.6714 7.27197C15.4666 7.07275 15.3643 6.8265 15.3643 6.5332Z" fill="black"/>
</svg>
