<svg width="16" height="16" viewBox="0 0 16 16" fill="none" xmlns="http://www.w3.org/2000/svg">
<path fill-rule="evenodd" clip-rule="evenodd" d="M4.06892 4.06892C4.1608 3.97703 4.30978 3.97703 4.40167 4.06892L8 7.66724L11.5983 4.06892C11.6902 3.97703 11.8392 3.97703 11.9311 4.06892C12.023 4.1608 12.023 4.30978 11.9311 4.40167L8.33275 8L11.9311 11.5983C12.023 11.6902 12.023 11.8392 11.9311 11.9311C11.8392 12.023 11.6902 12.023 11.5983 11.9311L8 8.33275L4.40167 11.9311C4.30978 12.023 4.1608 12.023 4.06892 11.9311C3.97703 11.8392 3.97703 11.6902 4.06892 11.5983L7.66724 8L4.06892 4.40167C3.97703 4.30978 3.97703 4.1608 4.06892 4.06892Z" fill="#212121" stroke="#212121" stroke-width="0.75" stroke-linecap="round" stroke-linejoin="round"/>
</svg>
