<svg width="40" height="40" viewBox="0 0 40 40" fill="none" xmlns="http://www.w3.org/2000/svg">
<rect width="40" height="40" rx="12" fill="white"/>
<path d="M20 29.6875C25.3503 29.6875 29.6875 25.3503 29.6875 20C29.6875 14.6497 25.3503 10.3125 20 10.3125C14.6497 10.3125 10.3125 14.6497 10.3125 20C10.3125 25.3503 14.6497 29.6875 20 29.6875Z" fill="#EA4C89"/>
<path fill-rule="evenodd" clip-rule="evenodd" d="M20 10C14.4794 10 10 14.4794 10 20C10 25.5206 14.4794 30 20 30C25.5097 30 30 25.5206 30 20C30 14.4794 25.5097 10 20 10ZM26.6052 14.6095C27.7983 16.0629 28.5141 17.9176 28.5358 19.9241C28.2538 19.8699 25.4338 19.295 22.5922 19.6529C22.5271 19.5119 22.4729 19.3601 22.4078 19.2083C22.2343 18.7961 22.0391 18.3731 21.8438 17.9718C24.9891 16.692 26.4208 14.8482 26.6052 14.6095ZM20 11.4751C22.1692 11.4751 24.154 12.2885 25.6616 13.6226C25.5097 13.8395 24.2191 15.564 21.1822 16.7028C19.7831 14.1323 18.2321 12.0282 17.9935 11.7028C18.6334 11.551 19.3059 11.4751 20 11.4751ZM16.3666 12.2777C16.5944 12.5813 18.1128 14.6963 19.5336 17.2126C15.5423 18.2755 12.0174 18.2538 11.6377 18.2538C12.1909 15.6074 13.9805 13.4056 16.3666 12.2777ZM11.4534 20.0109C11.4534 19.9241 11.4534 19.8373 11.4534 19.7506C11.8221 19.7614 15.9653 19.8156 20.2277 18.5358C20.4773 19.013 20.705 19.5011 20.9219 19.9891C20.8134 20.0217 20.6941 20.0542 20.5857 20.0867C16.1822 21.5076 13.8395 25.3904 13.6443 25.7158C12.2885 24.2082 11.4534 22.2017 11.4534 20.0109ZM20 28.5466C18.026 28.5466 16.2039 27.8742 14.7614 26.7462C14.9132 26.4317 16.6486 23.0911 21.4642 21.41C21.4859 21.3991 21.4967 21.3991 21.5184 21.3883C22.7223 24.5011 23.2104 27.1149 23.3406 27.8633C22.3102 28.308 21.1822 28.5466 20 28.5466ZM24.7614 27.0824C24.6746 26.5618 24.2191 24.0672 23.1019 20.9978C25.7809 20.5748 28.1236 21.269 28.4165 21.3666C28.0478 23.7419 26.6811 25.7917 24.7614 27.0824Z" fill="#C32361"/>
</svg>
