<svg width="40" height="40" viewBox="0 0 40 40" fill="none" xmlns="http://www.w3.org/2000/svg">
<rect width="40" height="40" rx="12" fill="#E65300"/>
<path d="M27.0733 24.1528L26.3908 26.3478C26.027 27.5174 24.9446 28.3144 23.7197 28.3144H18.4936C17.7178 28.3144 17.089 27.6855 17.089 26.9098V21.0127H20.8722C21.8653 21.0127 22.6703 21.8178 22.6703 22.8108V23.2735C22.6703 23.411 22.7817 23.5224 22.9192 23.5224H23.6949C23.8324 23.5224 23.9438 23.411 23.9438 23.2735V16.467C23.9438 16.3296 23.8324 16.2181 23.6949 16.2181H22.9192C22.7817 16.2181 22.6703 16.3296 22.6703 16.467V17.192C22.6703 18.185 21.8653 18.99 20.8722 18.99H17.089V13.0903C17.089 12.3145 17.7179 11.6856 18.4936 11.6856H23.4568C24.7395 11.6856 25.7793 12.7254 25.7793 14.008V15.4073C25.7793 15.5448 25.8907 15.6562 26.0282 15.6562H26.9353C27.0651 15.6562 27.1731 15.5565 27.1834 15.427L27.5654 10.6197C27.592 10.2857 27.3281 10 26.9931 10H11.2297C11.0108 10 10.8333 10.1774 10.8333 10.3964V11.2893C10.8333 11.5082 11.0108 11.6856 11.2297 11.6856H12.238C13.0138 11.6856 13.6427 12.3145 13.6427 13.0903V26.9097C13.6427 27.6855 13.0138 28.3144 12.238 28.3144H11.2297C11.0108 28.3144 10.8333 28.4918 10.8333 28.7107V29.6036C10.8333 29.8226 11.0108 30 11.2297 30H27.1199C27.4042 30 27.6457 29.7919 27.6878 29.5106L28.4711 24.2634C28.4935 24.113 28.377 23.9778 28.2249 23.9778H27.311C27.202 23.9778 27.1057 24.0486 27.0733 24.1528Z" fill="white"/>
</svg>
