<svg width="40" height="40" viewBox="0 0 40 40" fill="none" xmlns="http://www.w3.org/2000/svg">
<rect width="40" height="40" rx="12" fill="#1E1E1E"/>
<g clip-path="url(#clip0_4008_894)">
<path d="M16.6667 30C18.5067 30 20.0001 28.5066 20.0001 26.6666V23.3333H16.6667C14.8267 23.3333 13.3333 24.8266 13.3333 26.6666C13.3333 28.5066 14.8267 30 16.6667 30Z" fill="#0ACF83"/>
<path d="M13.3333 20.0001C13.3333 18.1601 14.8267 16.6667 16.6667 16.6667H20.0001V23.3334H16.6667C14.8267 23.3335 13.3333 21.8401 13.3333 20.0001Z" fill="#A259FF"/>
<path d="M13.3333 13.3334C13.3333 11.4934 14.8267 10 16.6667 10H20.0001V16.6666H16.6667C14.8267 16.6666 13.3333 15.1734 13.3333 13.3334Z" fill="#F24E1E"/>
<path d="M20 10H23.3334C25.1734 10 26.6668 11.4934 26.6668 13.3334C26.6668 15.1734 25.1734 16.6666 23.3334 16.6666H20V10Z" fill="#FF7262"/>
<path d="M26.6668 20.0001C26.6668 21.8401 25.1734 23.3335 23.3334 23.3335C21.4934 23.3335 20 21.8401 20 20.0001C20 18.1601 21.4934 16.6667 23.3334 16.6667C25.1734 16.6667 26.6668 18.1601 26.6668 20.0001Z" fill="#1ABCFE"/>
</g>
<defs>
<clipPath id="clip0_4008_894">
<rect width="20" height="20" fill="white" transform="translate(10 10)"/>
</clipPath>
</defs>
</svg>
