<svg width="21" height="18" viewBox="0 0 21 18" fill="none" xmlns="http://www.w3.org/2000/svg">
<path d="M6.90576 16.9756C6.18083 16.9756 5.63021 16.793 5.25391 16.4277C4.8776 16.0625 4.68945 15.5202 4.68945 14.8008L7.48682 12.3687C7.6473 12.2358 7.80501 12.1362 7.95996 12.0698C8.12044 11.9979 8.28092 11.9619 8.44141 11.9619C8.61849 11.9619 8.79004 11.9951 8.95605 12.0615C9.1276 12.1279 9.29362 12.2358 9.4541 12.3853L10.7905 13.5889L14.144 10.6172C14.3156 10.4622 14.4927 10.3516 14.6753 10.2852C14.8579 10.2132 15.0544 10.1772 15.2646 10.1772C15.4639 10.1772 15.6603 10.216 15.854 10.2935C16.0477 10.3654 16.2248 10.4761 16.3853 10.6255L20.2368 14.2612V14.7925C20.2368 15.5174 20.0487 16.0625 19.6724 16.4277C19.2961 16.793 18.7454 16.9756 18.0205 16.9756H6.90576ZM10.1929 10.8081C9.70589 10.8081 9.29085 10.6338 8.94775 10.2852C8.60465 9.93652 8.43311 9.51872 8.43311 9.03174C8.43311 8.55583 8.60465 8.14355 8.94775 7.79492C9.29085 7.44629 9.70589 7.27197 10.1929 7.27197C10.5138 7.27197 10.8071 7.35221 11.0728 7.5127C11.3384 7.67318 11.5487 7.889 11.7036 8.16016C11.8641 8.42578 11.9443 8.71631 11.9443 9.03174C11.9443 9.51872 11.7728 9.93652 11.4297 10.2852C11.0866 10.6338 10.6743 10.8081 10.1929 10.8081ZM2.78027 13.5723C1.91146 13.5723 1.25846 13.3592 0.821289 12.9331C0.389648 12.5015 0.173828 11.8568 0.173828 10.999V3.17139C0.173828 2.31364 0.389648 1.67171 0.821289 1.24561C1.25846 0.813965 1.91146 0.598145 2.78027 0.598145H14.0278C14.8911 0.598145 15.5413 0.813965 15.9785 1.24561C16.4157 1.67725 16.6343 2.31917 16.6343 3.17139V4.98096H15.2979V3.24609C15.2979 2.81445 15.1844 2.48796 14.9575 2.2666C14.7306 2.04525 14.4124 1.93457 14.0029 1.93457H2.79688C2.38184 1.93457 2.06364 2.04525 1.84229 2.2666C1.62093 2.48796 1.51025 2.81445 1.51025 3.24609V10.9326C1.51025 11.3643 1.62093 11.6908 1.84229 11.9121C2.06364 12.1279 2.38184 12.2358 2.79688 12.2358H4.83887V13.5723H2.78027ZM6.88086 17.4155C6.01204 17.4155 5.35905 17.1997 4.92188 16.7681C4.49023 16.342 4.27441 15.7 4.27441 14.8423V7.01465C4.27441 6.1569 4.49023 5.51497 4.92188 5.08887C5.35905 4.65723 6.01204 4.44141 6.88086 4.44141H18.2197C19.083 4.44141 19.7332 4.65723 20.1704 5.08887C20.6076 5.52051 20.8262 6.16243 20.8262 7.01465V14.8423C20.8262 15.7 20.6076 16.342 20.1704 16.7681C19.7332 17.1997 19.083 17.4155 18.2197 17.4155H6.88086ZM6.89746 16.0791H18.1948C18.6043 16.0791 18.9225 15.9684 19.1494 15.7471C19.3763 15.5312 19.4897 15.2075 19.4897 14.7759V7.08936C19.4897 6.65771 19.3763 6.33122 19.1494 6.10986C18.9225 5.88851 18.6043 5.77783 18.1948 5.77783H6.89746C6.48242 5.77783 6.16423 5.88851 5.94287 6.10986C5.72152 6.33122 5.61084 6.65771 5.61084 7.08936V14.7759C5.61084 15.2075 5.72152 15.5312 5.94287 15.7471C6.16423 15.9684 6.48242 16.0791 6.89746 16.0791Z" fill="black"/>
</svg>
