<svg width="40" height="40" viewBox="0 0 40 40" fill="none" xmlns="http://www.w3.org/2000/svg">
<rect width="40" height="40" rx="12" fill="white"/>
<g clip-path="url(#clip0_4008_393)">
<path fill-rule="evenodd" clip-rule="evenodd" d="M20.0083 10C14.474 10 10 14.5069 10 20.0826C10 24.5396 12.8666 28.3123 16.8434 29.6476C17.3406 29.748 17.5227 29.4306 17.5227 29.1637C17.5227 28.93 17.5063 28.1288 17.5063 27.2939C14.7222 27.895 14.1425 26.092 14.1425 26.092C13.6951 24.9235 13.0321 24.6232 13.0321 24.6232C12.1209 24.0055 13.0985 24.0055 13.0985 24.0055C14.1093 24.0723 14.6397 25.0405 14.6397 25.0405C15.5343 26.5761 16.9759 26.1422 17.5559 25.8751C17.6386 25.224 17.9039 24.7733 18.1856 24.523C15.9651 24.2893 13.6289 23.4213 13.6289 19.5484C13.6289 18.4466 14.0263 17.5452 14.6561 16.8442C14.5567 16.5939 14.2087 15.5587 14.7556 14.1732C14.7556 14.1732 15.6007 13.9061 17.5061 15.2082C18.3219 14.9875 19.1632 14.8752 20.0083 14.8743C20.8533 14.8743 21.7148 14.9912 22.5102 15.2082C24.4159 13.9061 25.2609 14.1732 25.2609 14.1732C25.8079 15.5587 25.4596 16.5939 25.3603 16.8442C26.0066 17.5452 26.3876 18.4466 26.3876 19.5484C26.3876 23.4213 24.0514 24.2725 21.8143 24.523C22.179 24.8401 22.4936 25.441 22.4936 26.3926C22.4936 27.7446 22.4773 28.8298 22.4773 29.1635C22.4773 29.4306 22.6596 29.748 23.1566 29.6478C27.1333 28.3121 30 24.5396 30 20.0826C30.0163 14.5069 25.526 10 20.0083 10Z" fill="black"/>
</g>
<defs>
<clipPath id="clip0_4008_393">
<rect width="20" height="20" fill="white" transform="translate(10 10)"/>
</clipPath>
</defs>
</svg>
