<svg width="40" height="40" viewBox="0 0 40 40" fill="none" xmlns="http://www.w3.org/2000/svg">
<rect width="40" height="40" rx="12" fill="#007EBB"/>
<g clip-path="url(#clip0_4008_481)">
<path d="M10 12.6368C10 11.9933 10.2252 11.4624 10.6757 11.0441C11.1261 10.6258 11.7117 10.4167 12.4324 10.4167C13.1403 10.4167 13.713 10.6226 14.1506 11.0344C14.601 11.4592 14.8263 12.0126 14.8263 12.6947C14.8263 13.3124 14.6075 13.8272 14.1699 14.2391C13.7194 14.6638 13.1274 14.8761 12.3938 14.8761H12.3745C11.6667 14.8761 11.094 14.6638 10.6564 14.2391C10.2188 13.8144 10 13.2803 10 12.6368ZM10.251 29.5287V16.6329H14.5367V29.5287H10.251ZM16.9112 29.5287H21.1969V22.3279C21.1969 21.8774 21.2484 21.5299 21.3514 21.2854C21.5315 20.8478 21.805 20.4778 22.1718 20.1754C22.5386 19.8729 22.9987 19.7217 23.5521 19.7217C24.9936 19.7217 25.7143 20.6934 25.7143 22.6368V29.5287H30V22.1348C30 20.2301 29.5496 18.7854 28.6486 17.8009C27.7477 16.8163 26.5573 16.324 25.0772 16.324C23.417 16.324 22.1236 17.0383 21.1969 18.4669V18.5055H21.1776L21.1969 18.4669V16.6329H16.9112C16.9369 17.0447 16.9498 18.3253 16.9498 20.4746C16.9498 22.6239 16.9369 25.6419 16.9112 29.5287Z" fill="white"/>
</g>
<defs>
<clipPath id="clip0_4008_481">
<rect width="20" height="20" fill="white" transform="translate(10 10)"/>
</clipPath>
</defs>
</svg>
