<svg width="40" height="40" viewBox="0 0 40 40" fill="none" xmlns="http://www.w3.org/2000/svg">
<rect width="40" height="40" rx="12" fill="#12100E"/>
<path d="M21.2812 19.7918C21.2675 18.2907 20.6637 16.8562 19.6018 15.802C18.5399 14.7479 17.1063 14.1599 15.6148 14.1668C14.1233 14.1737 12.6952 14.7749 11.643 15.8388C10.5907 16.9027 10 18.3427 10 19.8439C10 21.3451 10.5907 22.7851 11.643 23.8491C12.6952 24.913 14.1233 25.5141 15.6148 25.521C17.1063 25.5279 18.5399 24.94 19.6018 23.8858C20.6637 22.8316 21.2675 21.3971 21.2812 19.896M21.8281 19.896C21.8353 21.3101 22.1373 22.6612 22.6678 23.6538C23.1984 24.6464 23.9145 25.1998 24.6594 25.1929C25.4043 25.186 26.1175 24.6194 26.643 23.617C27.1684 22.6147 27.4634 21.2581 27.4634 19.8439C27.4634 18.4298 27.1684 17.0732 26.643 16.0708C26.1175 15.0684 25.4043 14.5018 24.6594 14.4949C23.9145 14.4881 23.1984 15.0414 22.6678 16.0341C22.1373 17.0267 21.8353 18.3778 21.8281 19.7918M28.0209 19.7918C28.0237 18.5256 28.13 17.3162 28.3164 16.4281C28.5028 15.54 28.7543 15.0454 29.0158 15.0522C29.2773 15.0591 29.5276 15.567 29.7121 16.4649C29.8965 17.3627 30 18.5776 30 19.8439C30 21.1103 29.8965 22.3251 29.7121 23.223C29.5276 24.1208 29.2773 24.6287 29.0158 24.6356C28.7543 24.6425 28.5028 24.1478 28.3164 23.2597C28.13 22.3716 28.0237 21.1623 28.0209 19.896" fill="white"/>
</svg>
