<svg width="32" height="32" viewBox="0 0 32 32" fill="none" xmlns="http://www.w3.org/2000/svg">
<rect width="32" height="32" rx="16" fill="#E6E6E6"/>
<path d="M8 15.9918C8 16.3662 8.14874 16.7253 8.4135 16.99C8.67825 17.2548 9.03734 17.4035 9.41176 17.4035C9.78619 17.4035 10.1453 17.2548 10.41 16.99C10.6748 16.7253 10.8235 16.3662 10.8235 15.9918C10.8235 15.6173 10.6748 15.2582 10.41 14.9935C10.1453 14.7287 9.78619 14.58 9.41176 14.58C9.03734 14.58 8.67825 14.7287 8.4135 14.9935C8.14874 15.2582 8 15.6173 8 15.9918Z" fill="#151515"/>
<path d="M14.5882 15.9918C14.5882 16.3662 14.737 16.7253 15.0017 16.99C15.2665 17.2548 15.6256 17.4035 16 17.4035C16.3744 17.4035 16.7335 17.2548 16.9983 16.99C17.263 16.7253 17.4118 16.3662 17.4118 15.9918C17.4118 15.6173 17.263 15.2582 16.9983 14.9935C16.7335 14.7287 16.3744 14.58 16 14.58C15.6256 14.58 15.2665 14.7287 15.0017 14.9935C14.737 15.2582 14.5882 15.6173 14.5882 15.9918Z" fill="#151515"/>
<path d="M21.1765 15.9918C21.1765 16.3662 21.3252 16.7253 21.59 16.99C21.8547 17.2548 22.2138 17.4035 22.5882 17.4035C22.9627 17.4035 23.3217 17.2548 23.5865 16.99C23.8513 16.7253 24 16.3662 24 15.9918C24 15.6173 23.8513 15.2582 23.5865 14.9935C23.3217 14.7287 22.9627 14.58 22.5882 14.58C22.2138 14.58 21.8547 14.7287 21.59 14.9935C21.3252 15.2582 21.1765 15.6173 21.1765 15.9918Z" fill="#151515"/>
</svg>
