<svg width="24" height="24" viewBox="0 0 24 24" fill="none" xmlns="http://www.w3.org/2000/svg">
<path fill-rule="evenodd" clip-rule="evenodd" d="M19.8622 11.6674C20.0459 11.8512 20.0459 12.1491 19.8622 12.3329L17.3524 14.8427C17.1686 15.0265 16.8706 15.0265 16.6869 14.8427C16.5031 14.6589 16.5031 14.361 16.6869 14.1772L18.3933 12.4707L10.3268 12.4707C10.0669 12.4707 9.85621 12.26 9.85621 12.0001C9.85621 11.7402 10.0669 11.5295 10.3268 11.5295L18.3933 11.5295L16.6869 9.82309C16.5031 9.63931 16.5031 9.34135 16.6869 9.15758C16.8706 8.9738 17.1686 8.9738 17.3524 9.15758L19.8622 11.6674ZM14.3525 6.30124C14.7545 6.70328 14.9804 7.24856 14.9804 7.81713L14.9804 8.65373C14.9804 8.91363 14.7697 9.12432 14.5098 9.12432C14.2499 9.12432 14.0392 8.91363 14.0392 8.65373L14.0392 7.81713C14.0392 7.49818 13.9125 7.19229 13.687 6.96675C13.4614 6.74122 13.1556 6.61452 12.8366 6.61452L6.14379 6.61452C5.82484 6.61452 5.51895 6.74122 5.29341 6.96675C5.06788 7.19229 4.94118 7.49818 4.94118 7.81713L4.94118 16.1831C4.94118 16.5021 5.06788 16.808 5.29341 17.0335C5.51895 17.2591 5.82484 17.3858 6.14379 17.3858L12.8366 17.3858C13.1556 17.3858 13.4614 17.2591 13.687 17.0335C13.9125 16.808 14.0392 16.5021 14.0392 16.1831L14.0392 15.3465C14.0392 15.0866 14.2499 14.876 14.5098 14.876C14.7697 14.876 14.9804 15.0866 14.9804 15.3465L14.9804 16.1831C14.9804 16.7517 14.7545 17.297 14.3525 17.699C13.9505 18.1011 13.4052 18.3269 12.8366 18.3269L6.14379 18.3269C5.57522 18.3269 5.02994 18.1011 4.6279 17.699C4.22586 17.297 4 16.7517 4 16.1831L4 7.81713C4 7.24856 4.22586 6.70328 4.6279 6.30124C5.02994 5.8992 5.57522 5.67334 6.14379 5.67334L12.8366 5.67334C13.4052 5.67334 13.9505 5.8992 14.3525 6.30124Z" fill="#FF3344" stroke="#FF3344" stroke-width="0.5" stroke-linecap="round" stroke-linejoin="round"/>
</svg>
