<svg width="40" height="40" viewBox="0 0 40 40" fill="none" xmlns="http://www.w3.org/2000/svg">
<rect width="40" height="40" rx="12" fill="white"/>
<g clip-path="url(#clip0_4008_309)">
<path d="M20 30C25.5228 30 30 25.5228 30 20C30 14.4772 25.5228 10 20 10C14.4772 10 10 14.4772 10 20C10 25.5228 14.4772 30 20 30Z" fill="white"/>
<path d="M20 10C14.4774 10 10 14.4774 10 20C10 24.2387 12.6337 27.8601 16.3539 29.3169C16.2634 28.5267 16.1893 27.3086 16.3868 26.4444C16.5679 25.6626 17.5556 21.4733 17.5556 21.4733C17.5556 21.4733 17.2593 20.8724 17.2593 19.9918C17.2593 18.6008 18.0658 17.5638 19.07 17.5638C19.9259 17.5638 20.3374 18.2058 20.3374 18.9712C20.3374 19.8272 19.7942 21.1111 19.5062 22.3045C19.2675 23.3004 20.0082 24.1152 20.9877 24.1152C22.7654 24.1152 24.1317 22.2387 24.1317 19.5391C24.1317 17.144 22.4115 15.4733 19.9506 15.4733C17.1029 15.4733 15.4321 17.6049 15.4321 19.8107C15.4321 20.6667 15.7613 21.5885 16.1728 22.0905C16.2551 22.1893 16.2634 22.2798 16.2387 22.3786C16.1646 22.6914 15.9918 23.3745 15.9588 23.5144C15.9177 23.6955 15.8107 23.7366 15.6214 23.6461C14.3704 23.0617 13.5885 21.2428 13.5885 19.7695C13.5885 16.6173 15.8765 13.7202 20.1975 13.7202C23.6626 13.7202 26.3621 16.1893 26.3621 19.4979C26.3621 22.9465 24.1893 25.7202 21.177 25.7202C20.1646 25.7202 19.2099 25.1934 18.8889 24.5679C18.8889 24.5679 18.3868 26.4774 18.2634 26.9465C18.0412 27.8189 17.4321 28.9053 17.0206 29.572C17.9588 29.8601 18.9465 30.0165 19.9835 30.0165C25.5062 30.0165 29.9835 25.5391 29.9835 20.0165C30 14.4774 25.5226 10 20 10Z" fill="#E60019"/>
</g>
<defs>
<clipPath id="clip0_4008_309">
<rect width="20" height="20" fill="white" transform="translate(10 10)"/>
</clipPath>
</defs>
</svg>
