<svg width="40" height="40" viewBox="0 0 40 40" fill="none" xmlns="http://www.w3.org/2000/svg">
<rect width="40" height="40" rx="12" fill="#FF4500"/>
<path d="M27.0824 23.3094C28.6937 23.3094 30 22.0032 30 20.3918C30 18.7805 28.6937 17.4742 27.0824 17.4742C25.471 17.4742 24.1647 18.7805 24.1647 20.3918C24.1647 22.0032 25.471 23.3094 27.0824 23.3094Z" fill="url(#paint0_radial_4008_978)"/>
<path d="M12.9176 23.3094C14.529 23.3094 15.8353 22.0032 15.8353 20.3918C15.8353 18.7805 14.529 17.4742 12.9176 17.4742C11.3063 17.4742 10 18.7805 10 20.3918C10 22.0032 11.3063 23.3094 12.9176 23.3094Z" fill="url(#paint1_radial_4008_978)"/>
<path d="M20.0069 29.1447C24.6072 29.1447 28.3364 26.3478 28.3364 22.8976C28.3364 19.4474 24.6072 16.6505 20.0069 16.6505C15.4067 16.6505 11.6775 19.4474 11.6775 22.8976C11.6775 26.3478 15.4067 29.1447 20.0069 29.1447Z" fill="url(#paint2_radial_4008_978)"/>
<path d="M17.5451 22.3007C17.4965 23.3511 16.7943 23.7329 15.9764 23.7329C15.1585 23.7329 14.5349 23.1625 14.5835 22.1121C14.6321 21.0616 15.3343 20.3745 16.1522 20.3745C16.9702 20.3745 17.5937 21.2514 17.5451 22.3018V22.3007Z" fill="url(#paint3_radial_4008_978)"/>
<path d="M22.4699 22.3007C22.5185 23.3511 23.2207 23.7329 24.0386 23.7329C24.8565 23.7329 25.4801 23.1625 25.4315 22.1121C25.3829 21.0616 24.6807 20.3745 23.8628 20.3745C23.0449 20.3745 22.4213 21.2514 22.4699 22.3018V22.3007Z" fill="url(#paint4_radial_4008_978)"/>
<path d="M16.718 21.831C16.8969 21.831 17.0419 21.673 17.0419 21.4781C17.0419 21.2832 16.8969 21.1253 16.718 21.1253C16.5391 21.1253 16.394 21.2832 16.394 21.4781C16.394 21.673 16.5391 21.831 16.718 21.831Z" fill="#FFC49C"/>
<path d="M24.4204 21.831C24.5993 21.831 24.7443 21.673 24.7443 21.4781C24.7443 21.2832 24.5993 21.1253 24.4204 21.1253C24.2415 21.1253 24.0965 21.2832 24.0965 21.4781C24.0965 21.673 24.2415 21.831 24.4204 21.831Z" fill="#FFC49C"/>
<path d="M20.0069 24.5496C18.9935 24.5496 18.0217 24.5994 17.124 24.6908C16.9702 24.7058 16.873 24.8654 16.9331 25.0077C17.4364 26.2097 18.6233 27.0542 20.0069 27.0542C21.3906 27.0542 22.5787 26.2097 23.0807 25.0077C23.1409 24.8654 23.0426 24.7058 22.8899 24.6908C21.991 24.5994 21.0204 24.5496 20.0069 24.5496Z" fill="url(#paint5_radial_4008_978)"/>
<path d="M24.5685 15.8013C25.7102 15.8013 26.6358 14.8758 26.6358 13.734C26.6358 12.5923 25.7102 11.6667 24.5685 11.6667C23.4267 11.6667 22.5012 12.5923 22.5012 13.734C22.5012 14.8758 23.4267 15.8013 24.5685 15.8013Z" fill="url(#paint6_radial_4008_978)"/>
<path d="M19.9769 16.9143C19.7293 16.9143 19.5292 16.8113 19.5292 16.6516C19.5292 14.7995 21.0366 13.2921 22.8887 13.2921C23.1363 13.2921 23.3364 13.4922 23.3364 13.7398C23.3364 13.9874 23.1363 14.1875 22.8887 14.1875C21.5305 14.1875 20.4257 15.2923 20.4257 16.6505C20.4257 16.8101 20.2256 16.9131 19.978 16.9131L19.9769 16.9143Z" fill="url(#paint7_radial_4008_978)"/>
<path d="M14.7733 22.2046C14.8184 21.2144 15.4766 20.5665 16.2413 20.5665C16.9655 20.5665 17.5255 21.3057 17.5463 22.2243C17.5659 21.197 16.9528 20.3745 16.1522 20.3745C15.3517 20.3745 14.6321 21.0744 14.5835 22.1329C14.5349 23.1914 15.1585 23.7329 15.9764 23.7329H16.0366C15.2915 23.7144 14.7293 23.1787 14.7744 22.2058L14.7733 22.2046ZM25.2406 22.2046C25.1955 21.2144 24.5373 20.5665 23.7726 20.5665C23.0484 20.5665 22.4884 21.3057 22.4676 22.2243C22.4479 21.197 23.0611 20.3745 23.8616 20.3745C24.6795 20.3745 25.3818 21.0744 25.4304 22.1329C25.4789 23.1914 24.8554 23.7329 24.0375 23.7329H23.9773C24.7224 23.7144 25.2846 23.1787 25.2395 22.2058L25.2406 22.2046Z" fill="#842123"/>
<defs>
<radialGradient id="paint0_radial_4008_978" cx="0" cy="0" r="1" gradientUnits="userSpaceOnUse" gradientTransform="translate(20.2102 15.1614) scale(20.2141 15.3687)">
<stop stop-color="#FEFFFF"/>
<stop offset="0.4" stop-color="#FEFFFF"/>
<stop offset="0.51" stop-color="#F9FCFC"/>
<stop offset="0.62" stop-color="#EDF3F5"/>
<stop offset="0.7" stop-color="#DEE9EC"/>
<stop offset="0.72" stop-color="#D8E4E8"/>
<stop offset="0.76" stop-color="#CCD8DF"/>
<stop offset="0.8" stop-color="#C8D5DD"/>
<stop offset="0.83" stop-color="#CCD6DE"/>
<stop offset="0.85" stop-color="#D8DBE2"/>
<stop offset="0.88" stop-color="#EDE3E9"/>
<stop offset="0.9" stop-color="#FFEBEF"/>
</radialGradient>
<radialGradient id="paint1_radial_4008_978" cx="0" cy="0" r="1" gradientUnits="userSpaceOnUse" gradientTransform="translate(20.2102 -12.4799) scale(20.2141 15.3687)">
<stop stop-color="#FEFFFF"/>
<stop offset="0.4" stop-color="#FEFFFF"/>
<stop offset="0.51" stop-color="#F9FCFC"/>
<stop offset="0.62" stop-color="#EDF3F5"/>
<stop offset="0.7" stop-color="#DEE9EC"/>
<stop offset="0.72" stop-color="#D8E4E8"/>
<stop offset="0.76" stop-color="#CCD8DF"/>
<stop offset="0.8" stop-color="#C8D5DD"/>
<stop offset="0.83" stop-color="#CCD6DE"/>
<stop offset="0.85" stop-color="#D8DBE2"/>
<stop offset="0.88" stop-color="#EDE3E9"/>
<stop offset="0.9" stop-color="#FFEBEF"/>
</radialGradient>
<radialGradient id="paint2_radial_4008_978" cx="0" cy="0" r="1" gradientUnits="userSpaceOnUse" gradientTransform="translate(20.2153 13.4198) scale(21.3583 17.4207)">
<stop stop-color="#FEFFFF"/>
<stop offset="0.4" stop-color="#FEFFFF"/>
<stop offset="0.51" stop-color="#F9FCFC"/>
<stop offset="0.62" stop-color="#EDF3F5"/>
<stop offset="0.7" stop-color="#DEE9EC"/>
<stop offset="0.72" stop-color="#D8E4E8"/>
<stop offset="0.76" stop-color="#CCD8DF"/>
<stop offset="0.8" stop-color="#C8D5DD"/>
<stop offset="0.83" stop-color="#CCD6DE"/>
<stop offset="0.85" stop-color="#D8DBE2"/>
<stop offset="0.88" stop-color="#EDE3E9"/>
<stop offset="0.9" stop-color="#FFEBEF"/>
</radialGradient>
<radialGradient id="paint3_radial_4008_978" cx="0" cy="0" r="1" gradientUnits="userSpaceOnUse" gradientTransform="translate(20.522 24.1199) scale(10.7226 11.9917)">
<stop stop-color="#FF6600"/>
<stop offset="0.5" stop-color="#FF4500"/>
<stop offset="0.7" stop-color="#FC4301"/>
<stop offset="0.82" stop-color="#F43F07"/>
<stop offset="0.92" stop-color="#E53812"/>
<stop offset="1" stop-color="#D4301F"/>
</radialGradient>
<radialGradient id="paint4_radial_4008_978" cx="0" cy="0" r="1" gradientUnits="userSpaceOnUse" gradientTransform="translate(19.5465 24.1199) rotate(180) scale(10.7226 11.9917)">
<stop stop-color="#FF6600"/>
<stop offset="0.5" stop-color="#FF4500"/>
<stop offset="0.7" stop-color="#FC4301"/>
<stop offset="0.82" stop-color="#F43F07"/>
<stop offset="0.92" stop-color="#E53812"/>
<stop offset="1" stop-color="#D4301F"/>
</radialGradient>
<radialGradient id="paint5_radial_4008_978" cx="0" cy="0" r="1" gradientUnits="userSpaceOnUse" gradientTransform="translate(19.9515 31.5857) scale(16.9502 24.1366)">
<stop stop-color="#172E35"/>
<stop offset="0.29" stop-color="#0E1C21"/>
<stop offset="0.73" stop-color="#030708"/>
<stop offset="1"/>
</radialGradient>
<radialGradient id="paint6_radial_4008_978" cx="0" cy="0" r="1" gradientUnits="userSpaceOnUse" gradientTransform="translate(20.2182 12.2835) scale(22.2552 19.0598)">
<stop stop-color="#FEFFFF"/>
<stop offset="0.4" stop-color="#FEFFFF"/>
<stop offset="0.51" stop-color="#F9FCFC"/>
<stop offset="0.62" stop-color="#EDF3F5"/>
<stop offset="0.7" stop-color="#DEE9EC"/>
<stop offset="0.72" stop-color="#D8E4E8"/>
<stop offset="0.76" stop-color="#CCD8DF"/>
<stop offset="0.8" stop-color="#C8D5DD"/>
<stop offset="0.83" stop-color="#CCD6DE"/>
<stop offset="0.85" stop-color="#D8DBE2"/>
<stop offset="0.88" stop-color="#EDE3E9"/>
<stop offset="0.9" stop-color="#FFEBEF"/>
</radialGradient>
<radialGradient id="paint7_radial_4008_978" cx="0" cy="0" r="1" gradientUnits="userSpaceOnUse" gradientTransform="translate(26.6393 27.0011) scale(19.8116 18.1981)">
<stop offset="0.48" stop-color="#7A9299"/>
<stop offset="0.67" stop-color="#172E35"/>
<stop offset="0.75"/>
<stop offset="0.82" stop-color="#172E35"/>
</radialGradient>
</defs>
</svg>
