<svg width="40" height="40" viewBox="0 0 40 40" fill="none" xmlns="http://www.w3.org/2000/svg">
<rect width="40" height="40" rx="12" fill="black"/>
<rect width="40" height="40" rx="12" fill="white"/>
<path d="M26.237 13.8941C26.2232 13.7935 26.1352 13.7379 26.0624 13.7318C25.9898 13.7257 24.4525 13.6118 24.4525 13.6118C24.4525 13.6118 23.3849 12.5519 23.2678 12.4346C23.1505 12.3173 22.9215 12.353 22.8327 12.3791C22.8195 12.383 22.5994 12.451 22.2352 12.5636C21.8785 11.5374 21.2491 10.5943 20.1418 10.5943C20.1113 10.5943 20.0798 10.5956 20.0483 10.5974C19.7334 10.1809 19.3433 10 19.0064 10C16.4271 10 15.1948 13.2244 14.8084 14.863C13.8061 15.1736 13.0941 15.3944 13.0031 15.423C12.4437 15.5984 12.426 15.6161 12.3526 16.1432C12.2972 16.5423 10.8333 27.8628 10.8333 27.8628L22.2398 30L28.4203 28.6629C28.4203 28.6629 26.2507 13.9946 26.237 13.8941ZM21.6047 12.7586C21.3182 12.8473 20.9926 12.9481 20.6396 13.0573C20.6399 12.9893 20.6402 12.9223 20.6402 12.8492C20.6402 12.2114 20.5517 11.6979 20.4097 11.2908C20.9802 11.3624 21.3602 12.0115 21.6047 12.7586ZM19.7019 11.4172C19.8605 11.8147 19.9637 12.3851 19.9637 13.1548C19.9637 13.1942 19.9633 13.2302 19.963 13.2667C19.3353 13.4611 18.6533 13.6722 17.9696 13.8839C18.3535 12.4026 19.0729 11.6872 19.7019 11.4172ZM18.9356 10.6918C19.0469 10.6918 19.159 10.7296 19.2664 10.8035C18.4397 11.1925 17.5537 12.1722 17.1795 14.1286C16.6326 14.298 16.098 14.4635 15.6038 14.6166C16.0421 13.1243 17.0829 10.6918 18.9356 10.6918Z" fill="#95BF46"/>
<path d="M26.0624 13.7318C25.9897 13.7257 24.4525 13.6118 24.4525 13.6118C24.4525 13.6118 23.3849 12.5518 23.2677 12.4346C23.2239 12.3909 23.1648 12.3685 23.1029 12.3589L22.2404 29.9998L28.4203 28.6629C28.4203 28.6629 26.2507 13.9946 26.237 13.894C26.2232 13.7935 26.1351 13.7379 26.0624 13.7318Z" fill="#5E8E3E"/>
<path d="M20.1418 17.1468L19.3798 19.4137C19.3798 19.4137 18.7121 19.0573 17.8936 19.0573C16.6938 19.0573 16.6334 19.8103 16.6334 20.0001C16.6334 21.0354 19.3322 21.4321 19.3322 23.8572C19.3322 25.7651 18.1221 26.9937 16.4904 26.9937C14.5323 26.9937 13.5311 25.7751 13.5311 25.7751L14.0553 24.0429C14.0553 24.0429 15.0845 24.9266 15.9531 24.9266C16.5206 24.9266 16.7515 24.4798 16.7515 24.1533C16.7515 22.8027 14.5373 22.7425 14.5373 20.5234C14.5373 18.6556 15.8779 16.8481 18.584 16.8481C19.6267 16.8481 20.1418 17.1468 20.1418 17.1468Z" fill="white"/>
</svg>
