<svg width="40" height="40" viewBox="0 0 40 40" fill="none" xmlns="http://www.w3.org/2000/svg">
<rect width="40" height="40" rx="12" fill="#FFFC00"/>
<path d="M28.581 25.4166C25.4839 23.9174 24.9903 21.6026 24.9683 21.4309C24.9417 21.2229 24.9116 21.0594 25.141 20.8478C25.3623 20.6434 26.3439 20.0359 26.6162 19.8458C27.0664 19.531 27.2647 19.2167 27.1185 18.8304C27.0163 18.5632 26.7675 18.4625 26.5054 18.4625C26.4227 18.4628 26.3403 18.472 26.2596 18.4901C25.7649 18.5974 25.2846 18.8452 25.0066 18.9122C24.9732 18.9208 24.9389 18.9254 24.9044 18.926C24.7562 18.926 24.7 18.8601 24.7143 18.6817C24.7491 18.1411 24.8227 17.0859 24.7373 16.1002C24.6203 14.744 24.1829 14.072 23.6642 13.4778C23.4133 13.1896 22.2483 11.9514 19.9999 11.9514C17.7515 11.9514 16.588 13.1896 16.3386 13.4742C15.8184 14.0685 15.3815 14.7404 15.2655 16.0966C15.1802 17.0823 15.2569 18.137 15.2885 18.6781C15.2988 18.8478 15.2466 18.9224 15.0985 18.9224C15.064 18.9218 15.0297 18.9172 14.9963 18.9086C14.7188 18.8417 14.2385 18.5938 13.7438 18.4865C13.6631 18.4684 13.5807 18.4592 13.498 18.4589C13.2349 18.4589 12.987 18.5611 12.8848 18.8268C12.7387 19.2132 12.9359 19.5274 13.3876 19.8422C13.66 20.0323 14.6416 20.6393 14.8629 20.8442C15.0918 21.0558 15.0622 21.2193 15.0356 21.4273C15.0136 21.6015 14.5195 23.9163 11.4229 25.413C11.2415 25.5009 10.9328 25.6869 11.477 25.9874C12.3314 26.4595 12.9002 26.409 13.3422 26.6936C13.7172 26.9353 13.4955 27.4565 13.7683 27.6445C14.1035 27.876 15.0944 27.6282 16.3744 28.0508C17.4475 28.4044 18.0995 29.4034 20.0025 29.4034C21.9054 29.4034 22.5763 28.3998 23.6305 28.0508C24.908 27.6282 25.9008 27.876 26.2366 27.6445C26.5089 27.4565 26.2877 26.9353 26.6627 26.6936C27.1047 26.409 27.673 26.4595 28.5279 25.9874C29.0711 25.6905 28.7624 25.5045 28.581 25.4166Z" fill="white"/>
<path d="M29.9285 25.2403C29.7895 24.8622 29.5248 24.6598 29.2233 24.4922C29.1666 24.459 29.1145 24.4324 29.07 24.412C28.9801 24.3655 28.8881 24.3205 28.7966 24.273C27.8569 23.7748 27.1231 23.1463 26.6142 22.4012C26.4697 22.1915 26.3443 21.9692 26.2396 21.7369C26.1962 21.6128 26.1982 21.5423 26.2294 21.4779C26.2603 21.4283 26.3012 21.3856 26.3495 21.3527C26.511 21.2459 26.6776 21.1376 26.7905 21.0645C26.9918 20.9342 27.1512 20.831 27.254 20.7579C27.6398 20.4881 27.9096 20.2014 28.0782 19.881C28.1958 19.6597 28.2645 19.4156 28.2794 19.1653C28.2943 18.9151 28.2551 18.6646 28.1645 18.4308C27.9091 17.7584 27.2739 17.3409 26.5043 17.3409C26.342 17.3407 26.1801 17.3578 26.0214 17.392C25.979 17.4012 25.9366 17.4109 25.8952 17.4216C25.9024 16.9617 25.8922 16.4763 25.8513 15.9985C25.7062 14.3189 25.118 13.4384 24.5048 12.7363C24.1121 12.2963 23.6496 11.9241 23.1359 11.6346C22.2053 11.1032 21.1501 10.8334 19.9999 10.8334C18.8497 10.8334 17.7996 11.1032 16.868 11.6346C16.353 11.9242 15.8895 12.2972 15.4965 12.7384C14.8833 13.4405 14.2952 14.3224 14.15 16.0005C14.1092 16.4783 14.0989 16.9663 14.1056 17.4237C14.0642 17.4129 14.0223 17.4032 13.9799 17.394C13.8212 17.3599 13.6593 17.3428 13.497 17.3429C12.7269 17.3429 12.0907 17.7604 11.8363 18.4329C11.7453 18.6667 11.7058 18.9174 11.7203 19.1679C11.7349 19.4184 11.8032 19.6628 11.9206 19.8846C12.0897 20.205 12.3595 20.4917 12.7453 20.7615C12.8475 20.833 13.0075 20.9362 13.2088 21.0681C13.3176 21.1386 13.4766 21.2418 13.6324 21.345C13.6869 21.3803 13.7333 21.4268 13.7683 21.4815C13.801 21.5484 13.8021 21.6204 13.7535 21.7533C13.6503 21.9806 13.527 22.1983 13.3851 22.4038C12.8874 23.132 12.1751 23.7492 11.2655 24.2434C10.7836 24.4989 10.2829 24.6695 10.0713 25.2444C9.91187 25.6782 10.0161 26.1719 10.4213 26.5878C10.57 26.7431 10.7425 26.8736 10.9323 26.9746C11.3272 27.1916 11.7471 27.3596 12.1827 27.4749C12.2726 27.4981 12.358 27.5363 12.4352 27.5878C12.5828 27.7171 12.5619 27.9118 12.7586 28.1969C12.8574 28.3443 12.9829 28.4718 13.1286 28.573C13.5415 28.8581 14.0054 28.876 14.497 28.8949C14.9411 28.9118 15.4444 28.9312 16.0193 29.1208C16.2574 29.1995 16.5047 29.3518 16.7914 29.5296C17.4797 29.9527 18.422 30.5317 19.9989 30.5317C21.5758 30.5317 22.5247 29.9496 23.2181 29.525C23.5028 29.3502 23.7485 29.1995 23.98 29.1228C24.5549 28.9328 25.0582 28.9138 25.5023 28.897C25.9938 28.8781 26.4578 28.8602 26.8707 28.5751C27.0433 28.4547 27.1871 28.2977 27.2918 28.1152C27.4333 27.8745 27.4297 27.7064 27.5626 27.5888C27.635 27.5397 27.7152 27.5031 27.7997 27.4805C28.2413 27.3649 28.6669 27.1953 29.067 26.9756C29.2686 26.8675 29.4501 26.7254 29.6035 26.5556L29.6086 26.5495C29.9888 26.1427 30.0844 25.6634 29.9285 25.2403ZM28.5268 25.9935C27.672 26.4657 27.1037 26.4151 26.6617 26.6997C26.2861 26.9414 26.5084 27.4626 26.2355 27.6507C25.9003 27.8822 24.9095 27.6343 23.6295 28.0569C22.5738 28.4059 21.9003 29.4095 20.0014 29.4095C18.1026 29.4095 17.4449 28.408 16.3718 28.0544C15.0944 27.6318 14.1015 27.8796 13.7658 27.6481C13.4934 27.4601 13.7147 26.9389 13.3396 26.6972C12.8971 26.4125 12.3289 26.4631 11.4745 25.9935C10.9303 25.6931 11.2389 25.5071 11.4203 25.4192C14.5169 23.9199 15.0111 21.6051 15.033 21.4334C15.0596 21.2254 15.0893 21.0619 14.8603 20.8504C14.6391 20.646 13.6575 20.0384 13.3851 19.8483C12.9344 19.5335 12.7361 19.2193 12.8823 18.833C12.9845 18.5657 13.2338 18.4651 13.4955 18.4651C13.5782 18.4653 13.6606 18.4746 13.7413 18.4927C14.2359 18.6 14.7162 18.8478 14.9937 18.9147C15.0271 18.9233 15.0614 18.9279 15.0959 18.9285C15.2441 18.9285 15.2962 18.8539 15.286 18.6843C15.2543 18.1431 15.1777 17.0884 15.263 16.1027C15.38 14.7466 15.8169 14.0746 16.3361 13.4803C16.5854 13.1947 17.7571 11.9565 19.9979 11.9565C22.2386 11.9565 23.4133 13.1896 23.6627 13.4742C24.1824 14.0685 24.6198 14.7404 24.7358 16.0966C24.8211 17.0823 24.7475 18.1375 24.7128 18.6781C24.701 18.8565 24.7547 18.9224 24.9029 18.9224C24.9374 18.9218 24.9717 18.9172 25.0051 18.9086C25.2831 18.8417 25.7634 18.5938 26.258 18.4865C26.3387 18.4684 26.4211 18.4592 26.5038 18.4589C26.767 18.4589 27.0148 18.5611 27.117 18.8268C27.2632 19.2132 27.0659 19.5274 26.6147 19.8422C26.3423 20.0323 25.3607 20.6393 25.1395 20.8442C24.91 21.0558 24.9402 21.2193 24.9668 21.4273C24.9887 21.6015 25.4823 23.9163 28.5795 25.413C28.7624 25.5045 29.0711 25.6905 28.5268 25.9935Z" fill="black"/>
</svg>
