<svg width="40" height="40" viewBox="0 0 40 40" fill="none" xmlns="http://www.w3.org/2000/svg">
<rect width="40" height="40" rx="12" fill="url(#paint0_linear_4008_226)"/>
<path d="M13.4818 20.1841L13.6631 22.2156L13.4818 24.3503C13.4724 24.4285 13.413 24.4878 13.3443 24.4878C13.2755 24.4878 13.213 24.4285 13.213 24.3503L13.038 22.2156L13.213 20.1841C13.213 20.1153 13.2724 20.0528 13.3443 20.0528C13.413 20.0528 13.4724 20.1153 13.4818 20.1841ZM14.1506 18.7588C14.0631 18.7588 14.0037 18.8276 13.9944 18.9151L13.8381 22.2156L13.9944 24.3503C14.0037 24.4378 14.0631 24.5066 14.1506 24.5066C14.2288 24.5066 14.2975 24.4378 14.2975 24.3503L14.4788 22.2156L14.2975 18.9151C14.2975 18.8276 14.2288 18.7588 14.1506 18.7588ZM14.9476 18.0056C14.8508 18.0056 14.782 18.0743 14.7726 18.1712L14.6351 22.2344L14.7726 24.3535C14.782 24.4503 14.8508 24.5191 14.9476 24.5191C15.0352 24.5191 15.1133 24.4503 15.1133 24.3535L15.2789 22.2344L15.1133 18.1712C15.1133 18.0743 15.0352 18.0056 14.9476 18.0056ZM10.225 21.0248C10.1813 21.0248 10.1563 21.0592 10.1469 21.1029L10 22.2156L10.1469 23.3095C10.1563 23.3533 10.1813 23.3877 10.225 23.3877C10.2688 23.3877 10.2938 23.3533 10.3032 23.3095L10.4782 22.2156L10.3032 21.1029C10.2938 21.0592 10.2688 21.0248 10.225 21.0248ZM10.9627 20.3403C10.9189 20.3403 10.8845 20.3747 10.8845 20.4185L10.6845 22.2156L10.8845 23.969C10.8845 24.0222 10.9189 24.0565 10.9627 24.0565C11.0064 24.0565 11.0408 24.0222 11.0502 23.9784L11.2752 22.2156L11.0502 20.4185C11.0408 20.3747 11.0064 20.3403 10.9627 20.3403ZM11.7534 19.984C11.7003 19.984 11.6565 20.0278 11.6503 20.0872L11.469 22.2156L11.6503 24.2722C11.6596 24.3253 11.7034 24.3691 11.7534 24.3691C11.8065 24.3691 11.8503 24.3253 11.8503 24.2722L12.0659 22.2156L11.8503 20.0872C11.8503 20.0278 11.8065 19.984 11.7534 19.984ZM12.5441 19.9153C12.4848 19.9153 12.4316 19.959 12.4316 20.0278L12.2504 22.2156L12.4316 24.3347C12.4316 24.4035 12.4848 24.4472 12.5441 24.4472C12.6035 24.4472 12.6567 24.4035 12.666 24.3347L12.8661 22.2156L12.666 20.0278C12.6567 19.959 12.6035 19.9153 12.5441 19.9153ZM20.0891 16.4491C20.0547 16.4241 20.0016 16.4053 19.9578 16.4053C19.889 16.4053 19.8265 16.4303 19.7828 16.4647C19.7234 16.5179 19.6859 16.596 19.6796 16.6741V16.6991L19.5765 22.2219L19.6296 23.2377L19.6828 24.2284C19.6921 24.3753 19.814 24.4972 19.9609 24.4972C20.1078 24.4972 20.2297 24.3753 20.2297 24.2284L20.3516 22.2219L20.2297 16.6741C20.2172 16.5804 20.1672 16.4929 20.0891 16.4491ZM19.2546 16.9273C19.2108 16.9023 19.1671 16.8835 19.117 16.8835C19.067 16.8835 19.0202 16.9023 18.9795 16.9273C18.9108 16.9711 18.867 17.0492 18.867 17.1367L18.8576 17.1898L18.7701 22.2156C18.7701 22.2156 18.7701 22.225 18.867 24.2659V24.2753C18.867 24.3284 18.8858 24.3785 18.9201 24.4222C18.9733 24.4816 19.042 24.5191 19.1202 24.5191C19.1889 24.5191 19.2514 24.4847 19.2952 24.441C19.3483 24.3972 19.3733 24.3378 19.3733 24.2659L19.3827 24.0565L19.4796 22.225L19.3765 17.1367C19.3671 17.0492 19.3233 16.9711 19.2546 16.9273ZM15.7728 17.6305C15.6759 17.6305 15.5915 17.718 15.5915 17.8212L15.454 22.2156L15.5915 24.3159C15.6009 24.4191 15.679 24.4972 15.7728 24.4972C15.8759 24.4972 15.9541 24.4191 15.9634 24.3159L16.1197 22.2156L15.9634 17.8212C15.9572 17.718 15.879 17.6305 15.7728 17.6305ZM27.5465 19.5933C27.2089 19.5933 26.887 19.6621 26.5901 19.784C26.3901 17.5711 24.5335 15.8334 22.2675 15.8334C21.7112 15.8334 21.1736 15.9365 20.6954 16.1272C20.5048 16.1959 20.4516 16.2647 20.4516 16.4147V24.2191C20.4516 24.3753 20.5735 24.4878 20.7204 24.5066H27.5434C28.8967 24.5066 30 23.4127 30 22.0593C30.0031 20.6966 28.8998 19.5933 27.5465 19.5933ZM18.2732 17.7087C18.1419 17.7087 18.0388 17.8118 18.0294 17.9525L17.9262 22.225L18.0294 24.2753C18.0388 24.4066 18.1419 24.5097 18.2732 24.5097C18.4044 24.5097 18.5076 24.4066 18.5076 24.2753L18.6295 22.225L18.5076 17.9525C18.4982 17.8118 18.4044 17.7087 18.2732 17.7087ZM16.5979 17.4649C16.4948 17.4649 16.3979 17.5618 16.3979 17.6743L16.276 22.2156L16.3979 24.3066C16.4072 24.4191 16.4948 24.5066 16.5979 24.5066C16.7104 24.5066 16.7979 24.4191 16.8073 24.3066L16.9448 22.2156L16.8073 17.6743C16.7979 17.5618 16.7104 17.4649 16.5979 17.4649ZM17.4324 17.5711C17.3105 17.5711 17.2168 17.668 17.2168 17.7868L17.0949 22.2156L17.2168 24.2909C17.2261 24.4128 17.3136 24.5066 17.4324 24.5066C17.5512 24.5066 17.6481 24.4097 17.6481 24.2909L17.7793 22.2156L17.6481 17.7868C17.6481 17.6649 17.5543 17.5711 17.4324 17.5711Z" fill="white"/>
<defs>
<linearGradient id="paint0_linear_4008_226" x1="20" y1="0" x2="20" y2="40" gradientUnits="userSpaceOnUse">
<stop stop-color="#FF5500"/>
<stop offset="1" stop-color="#FF3300"/>
</linearGradient>
</defs>
</svg>
