<svg width="40" height="40" viewBox="0 0 40 40" fill="none" xmlns="http://www.w3.org/2000/svg">
<rect width="40" height="40" rx="12" fill="black"/>
<path d="M19.9694 10C14.4636 10 10 14.4635 10 19.9693C10 25.4754 14.4636 29.9385 19.9694 29.9385C25.4759 29.9385 29.939 25.4754 29.939 19.9693C29.939 14.4638 25.4759 10.0005 19.9693 10.0005L19.9694 10ZM24.5413 24.3786C24.3628 24.6714 23.9794 24.7643 23.6866 24.5845C21.3459 23.1548 18.3992 22.831 14.929 23.6238C14.5946 23.7 14.2612 23.4905 14.185 23.156C14.1085 22.8214 14.3172 22.4881 14.6524 22.4119C18.45 21.5439 21.7075 21.9179 24.3354 23.5238C24.6282 23.7036 24.7211 24.0857 24.5413 24.3786ZM25.7616 21.6637C25.5366 22.0298 25.058 22.1452 24.6925 21.9202C22.0128 20.2727 17.9279 19.7957 14.7582 20.7579C14.3472 20.882 13.913 20.6504 13.7882 20.24C13.6644 19.8289 13.8962 19.3956 14.3066 19.2706C17.9272 18.172 22.4282 18.7042 25.5056 20.5952C25.8711 20.8202 25.9866 21.2987 25.7616 21.6637ZM25.8663 18.837C22.6532 16.9286 17.3521 16.7531 14.2843 17.6842C13.7917 17.8336 13.2707 17.5555 13.1215 17.0629C12.9722 16.57 13.25 16.0494 13.743 15.8996C17.2646 14.8306 23.1187 15.0371 26.818 17.2332C27.2621 17.4962 27.4073 18.0685 27.1442 18.511C26.8823 18.954 26.3085 19.1001 25.8668 18.837H25.8663Z" fill="#1ED760"/>
</svg>
