<svg width="40" height="40" viewBox="0 0 40 40" fill="none" xmlns="http://www.w3.org/2000/svg">
<rect width="40" height="40" rx="12" fill="#2BABEE"/>
<path fill-rule="evenodd" clip-rule="evenodd" d="M9.70824 18.8019C15.0769 16.4628 18.6569 14.9208 20.4482 14.1757C25.5625 12.0485 26.6253 11.679 27.3179 11.6668C27.4703 11.6641 27.8109 11.7018 28.0316 11.8809C28.2179 12.032 28.2691 12.2363 28.2937 12.3796C28.3182 12.5229 28.3487 12.8495 28.3245 13.1046C28.0473 16.0166 26.8481 23.0834 26.238 26.3449C25.9798 27.725 25.4715 28.1877 24.9794 28.233C23.9099 28.3314 23.0978 27.5262 22.062 26.8472C20.4411 25.7847 19.5255 25.1233 17.9521 24.0865C16.1339 22.8883 17.3126 22.2298 18.3488 21.1535C18.62 20.8718 23.3321 16.5858 23.4233 16.197C23.4347 16.1484 23.4453 15.9671 23.3376 15.8714C23.2299 15.7757 23.071 15.8084 22.9563 15.8345C22.7937 15.8714 20.2043 17.5828 15.1882 20.9689C14.4532 21.4736 13.7875 21.7195 13.191 21.7066C12.5335 21.6924 11.2686 21.3348 10.3283 21.0291C9.175 20.6542 8.25837 20.456 8.33819 19.8193C8.37976 19.4877 8.83645 19.1486 9.70824 18.8019Z" fill="white"/>
</svg>
