<svg width="40" height="40" viewBox="0 0 40 40" fill="none" xmlns="http://www.w3.org/2000/svg">
<rect width="40" height="40" rx="12" fill="black"/>
<path d="M24.7434 19.2696C24.6573 19.2283 24.5698 19.1886 24.4811 19.1505C24.3268 16.3061 22.7725 14.6776 20.1627 14.6609C20.1509 14.6609 20.1391 14.6609 20.1273 14.6609C18.5663 14.6609 17.268 15.3272 16.4689 16.5397L17.9043 17.5243C18.5012 16.6186 19.438 16.4255 20.128 16.4255C20.1359 16.4255 20.1439 16.4255 20.1518 16.4256C21.0111 16.4311 21.6596 16.6809 22.0793 17.1681C22.3847 17.5228 22.5889 18.013 22.6901 18.6316C21.9282 18.5022 21.1043 18.4623 20.2234 18.5128C17.7421 18.6558 16.147 20.1029 16.2541 22.1137C16.3085 23.1337 16.8166 24.0112 17.6849 24.5845C18.419 25.0691 19.3645 25.306 20.3471 25.2524C21.6448 25.1812 22.6628 24.6861 23.373 23.7808C23.9124 23.0933 24.2535 22.2024 24.4042 21.0798C25.0226 21.453 25.4809 21.9442 25.7341 22.5346C26.1645 23.5382 26.1896 25.1875 24.8438 26.5321C23.6648 27.71 22.2475 28.2196 20.1056 28.2353C17.7296 28.2177 15.9327 27.4557 14.7644 25.9705C13.6704 24.5798 13.105 22.571 13.0839 20C13.105 17.4289 13.6704 15.4202 14.7644 14.0294C15.9327 12.5443 17.7296 11.7823 20.1055 11.7646C22.4987 11.7824 24.327 12.5481 25.54 14.0404C26.1348 14.7722 26.5832 15.6926 26.8788 16.7657L28.5608 16.3169C28.2025 14.9961 27.6386 13.8579 26.8713 12.914C25.3162 11.0007 23.0419 10.0203 20.1114 10H20.0997C17.1752 10.0203 14.9263 11.0044 13.4154 12.9249C12.071 14.634 11.3775 17.0121 11.3542 19.993L11.3542 20L11.3542 20.007C11.3775 22.9879 12.071 25.366 13.4154 27.0751C14.9263 28.9956 17.1752 29.9798 20.0997 30H20.1114C22.7114 29.982 24.5442 29.3013 26.0539 27.7928C28.0293 25.8194 27.9698 23.3457 27.3187 21.8272C26.8517 20.7382 25.9611 19.8538 24.7434 19.2696ZM20.2542 23.4903C19.1667 23.5516 18.0369 23.0634 17.9812 22.0179C17.9399 21.2427 18.5329 20.3777 20.3209 20.2747C20.5257 20.2629 20.7267 20.2571 20.9241 20.2571C21.5735 20.2571 22.1811 20.3202 22.7335 20.4409C22.5275 23.0141 21.3189 23.4319 20.2542 23.4903Z" fill="white"/>
</svg>
