<svg width="27" height="27" viewBox="0 0 27 27" fill="none" xmlns="http://www.w3.org/2000/svg">
<rect x="0.5" y="0.5" width="25.6667" height="25.6667" rx="12.8333" fill="#F0F0F0"/>
<rect x="0.5" y="0.5" width="25.6667" height="25.6667" rx="12.8333" stroke="#E6E6E6"/>
<path fill-rule="evenodd" clip-rule="evenodd" d="M13.1115 8.09189C13.234 7.96937 13.4326 7.96937 13.5552 8.09189L16.5079 11.0446C16.6304 11.1671 16.6304 11.3658 16.5079 11.4883C16.3853 11.6108 16.1867 11.6108 16.0642 11.4883L13.647 9.07113V15.4002C13.647 15.5735 13.5066 15.714 13.3333 15.714C13.1601 15.714 13.0196 15.5735 13.0196 15.4002V9.07113L10.6024 11.4883C10.4799 11.6108 10.2813 11.6108 10.1588 11.4883C10.0363 11.3658 10.0363 11.1671 10.1588 11.0446L13.1115 8.09189ZM8.60898 15.677C8.78225 15.677 8.92271 15.8175 8.92271 15.9908V17.1719C8.92271 17.4019 9.01409 17.6225 9.17675 17.7852C9.33941 17.9478 9.56003 18.0392 9.79007 18.0392H16.8766C17.1066 18.0392 17.3272 17.9478 17.4899 17.7852C17.6525 17.6225 17.7439 17.4019 17.7439 17.1719V15.9908C17.7439 15.8175 17.8844 15.677 18.0577 15.677C18.2309 15.677 18.3714 15.8175 18.3714 15.9908V17.1719C18.3714 17.5683 18.2139 17.9485 17.9336 18.2288C17.6532 18.5092 17.273 18.6667 16.8766 18.6667H9.79007C9.39362 18.6667 9.01341 18.5092 8.73308 18.2288C8.45275 17.9485 8.29526 17.5683 8.29526 17.1719V15.9908C8.29526 15.8175 8.43572 15.677 8.60898 15.677Z" fill="#151515"/>
</svg>
