<svg width="65" height="64" viewBox="0 0 65 64" fill="none" xmlns="http://www.w3.org/2000/svg">
<rect x="0.5" width="64" height="64" rx="32" fill="#FF3B30"/>
<path d="M44.9125 26.025L38.475 19.5875C38.0999 19.2134 37.5923 19.0023 37.0625 19H27.9375C27.4077 19.0023 26.9001 19.2134 26.525 19.5875L20.0875 26.025C19.7134 26.4001 19.5023 26.9077 19.5 27.4375V36.5625C19.5023 37.0923 19.7134 37.5999 20.0875 37.975L26.525 44.4125C26.9001 44.7866 27.4077 44.9977 27.9375 45H37.0625C37.5923 44.9977 38.0999 44.7866 38.475 44.4125L44.9125 37.975C45.2866 37.5999 45.4977 37.0923 45.5 36.5625V27.4375C45.4977 26.9077 45.2866 26.4001 44.9125 26.025ZM31.5 26C31.5 25.7348 31.6054 25.4804 31.7929 25.2929C31.9804 25.1054 32.2348 25 32.5 25C32.7652 25 33.0196 25.1054 33.2071 25.2929C33.3946 25.4804 33.5 25.7348 33.5 26V33C33.5 33.2652 33.3946 33.5196 33.2071 33.7071C33.0196 33.8946 32.7652 34 32.5 34C32.2348 34 31.9804 33.8946 31.7929 33.7071C31.6054 33.5196 31.5 33.2652 31.5 33V26ZM32.5 39C32.2033 39 31.9133 38.912 31.6666 38.7472C31.42 38.5824 31.2277 38.3481 31.1142 38.074C31.0006 37.7999 30.9709 37.4983 31.0288 37.2074C31.0867 36.9164 31.2296 36.6491 31.4393 36.4393C31.6491 36.2296 31.9164 36.0867 32.2074 36.0288C32.4983 35.9709 32.7999 36.0007 33.074 36.1142C33.3481 36.2277 33.5824 36.42 33.7472 36.6666C33.912 36.9133 34 37.2033 34 37.5C34 37.8978 33.842 38.2794 33.5607 38.5607C33.2794 38.842 32.8978 39 32.5 39Z" fill="#FFF3F2"/>
</svg>
