<svg width="40" height="40" viewBox="0 0 40 40" fill="none" xmlns="http://www.w3.org/2000/svg">
<rect width="40" height="40" rx="12" fill="#25D366"/>
<path fill-rule="evenodd" clip-rule="evenodd" d="M27.0039 12.9063C25.1331 11.0331 22.6449 10.001 19.9938 10C14.531 10 10.0851 14.4455 10.0832 19.9097C10.0822 21.6565 10.5389 23.3615 11.4061 24.8641L10 30L15.2538 28.6219C16.7012 29.4117 18.3311 29.8275 19.9896 29.828H19.9938C25.4557 29.828 29.9021 25.382 29.904 19.9178C29.905 17.2696 28.8752 14.78 27.0039 12.9068V12.9063ZM19.9938 28.1543H19.9905C18.5126 28.1539 17.0628 27.7566 15.7979 27.0063L15.4971 26.8276L12.3793 27.6454L13.2114 24.6056L13.0156 24.2938C12.1911 22.9823 11.7554 21.4664 11.7563 19.9102C11.7582 15.3688 15.4533 11.6736 19.9972 11.6736C22.1973 11.6746 24.2654 12.5323 25.8207 14.0895C27.376 15.6463 28.2318 17.7162 28.2309 19.9168C28.2289 24.4588 24.5339 28.1539 19.9938 28.1539V28.1543ZM24.512 21.9854C24.2644 21.8614 23.047 21.2626 22.8198 21.1799C22.5927 21.0972 22.4278 21.0559 22.2629 21.3039C22.098 21.552 21.6233 22.1099 21.4788 22.2748C21.3343 22.4401 21.1899 22.4606 20.9423 22.3365C20.6948 22.2125 19.8969 21.9511 18.9508 21.1077C18.2147 20.4509 17.7176 19.6403 17.5732 19.3922C17.4287 19.1442 17.558 19.0102 17.6815 18.8871C17.7927 18.7759 17.9291 18.5977 18.0531 18.4532C18.1772 18.3088 18.218 18.2052 18.3007 18.0403C18.3834 17.8749 18.3421 17.7305 18.2803 17.6064C18.2185 17.4824 17.7234 16.2635 17.5166 15.7679C17.3156 15.2851 17.1113 15.3507 16.9597 15.3426C16.8152 15.3355 16.6504 15.3341 16.485 15.3341C16.3196 15.3341 16.0516 15.3958 15.8245 15.6439C15.5973 15.8919 14.9577 16.4911 14.9577 17.7095C14.9577 18.9279 15.8449 20.106 15.9689 20.2714C16.093 20.4367 17.7152 22.9377 20.1991 24.0107C20.7898 24.2658 21.2512 24.4184 21.6109 24.5324C22.204 24.7211 22.7438 24.6945 23.1705 24.6308C23.6462 24.5595 24.6355 24.0316 24.8418 23.4532C25.048 22.8749 25.048 22.3788 24.9862 22.2757C24.9245 22.1726 24.7591 22.1103 24.5115 21.9863L24.512 21.9854Z" fill="white"/>
</svg>
