<svg width="40" height="40" viewBox="0 0 40 40" fill="none" xmlns="http://www.w3.org/2000/svg">
<rect width="40" height="40" rx="12" fill="white"/>
<g clip-path="url(#clip0_4008_937)">
<path d="M29.6017 15.1545C29.4886 14.729 29.2658 14.3407 28.9555 14.0283C28.6452 13.716 28.2583 13.4907 27.8335 13.3749C26.2699 12.9545 20.0199 12.9545 20.0199 12.9545C20.0199 12.9545 13.7699 12.9545 12.2063 13.3749C11.7815 13.4907 11.3946 13.716 11.0843 14.0283C10.774 14.3407 10.5512 14.729 10.4381 15.1545C10.0199 16.7249 10.0199 19.9999 10.0199 19.9999C10.0199 19.9999 10.0199 23.2749 10.4381 24.8454C10.5512 25.2709 10.774 25.6592 11.0843 25.9715C11.3946 26.2838 11.7815 26.5091 12.2063 26.6249C13.7699 27.0454 20.0199 27.0454 20.0199 27.0454C20.0199 27.0454 26.2699 27.0454 27.8335 26.6249C28.2583 26.5091 28.6452 26.2838 28.9555 25.9715C29.2658 25.6592 29.4886 25.2709 29.6017 24.8454C30.0199 23.2749 30.0199 19.9999 30.0199 19.9999C30.0199 19.9999 30.0199 16.7249 29.6017 15.1545Z" fill="#FF0302"/>
<path d="M17.9745 22.9741V17.0264L23.2018 20.0002L17.9745 22.9741Z" fill="#FEFEFE"/>
</g>
<defs>
<clipPath id="clip0_4008_937">
<rect width="20" height="20" fill="white" transform="translate(10 10)"/>
</clipPath>
</defs>
</svg>
